<svg width="347" height="146" viewBox="0 0 347 146" fill="none" xmlns="http://www.w3.org/2000/svg">
<g filter="url(#filter0_b_988_604)">
<path fill-rule="evenodd" clip-rule="evenodd" d="M75.3195 50.9233L79.6979 42.5698C73.077 40.5473 65.8378 40.6873 59.3267 42.9638C52.8155 45.2403 47.4757 49.4981 44.3006 54.9457C40.9221 60.722 40.2292 67.4092 42.3659 73.6188C44.5027 79.8282 49.3047 85.0823 55.7744 88.2901L60.1529 79.9224C56.5378 77.9307 53.8412 74.8972 52.5332 71.3512C51.4883 68.5649 51.3379 65.5831 52.0976 62.7275C52.8573 59.8722 54.4984 57.2518 56.8437 55.1491C59.1893 53.0465 62.1497 51.5415 65.4058 50.7968C68.6619 50.0521 72.0899 50.0958 75.3195 50.9233ZM75.3483 101.119C79.9007 98.6866 83.5936 95.2079 86.0213 91.0654C89.1601 85.6765 89.9732 79.486 88.3128 73.6193C86.6528 67.7525 82.6293 62.5997 76.9741 59.0971L72.5314 67.6189C75.4929 69.903 77.5337 72.9547 78.3533 76.3243C79.1733 79.6938 78.729 83.2034 77.0857 86.3367C75.4424 89.47 72.6873 92.0611 69.2255 93.7287C65.7638 95.3963 61.7788 96.0524 57.8567 95.6L53.414 104.15C55.6408 104.625 57.9265 104.861 60.2191 104.852C65.5607 104.844 70.7958 103.552 75.3483 101.119ZM72.8207 85.2629C71.6454 87.2742 69.8011 88.9304 67.5289 90.0162C65.2563 91.1018 62.6611 91.5661 60.0811 91.3492L70.2084 72.0094C72.2281 73.6773 73.5735 75.8695 74.0444 78.2581C74.5153 80.6469 74.0862 83.1042 72.8207 85.2629ZM62.6624 75.1454L72.8784 55.6303C69.9714 54.7659 66.7992 54.8736 63.9784 55.9324C61.1575 56.9912 58.8897 58.9254 57.6159 61.3588C56.342 63.7923 56.1531 66.5513 57.0858 69.0993C58.0184 71.6472 60.0062 73.8024 62.6624 75.1454Z" fill="url(#paint0_linear_988_604)"/>
<path d="M137.366 92.8915C132.748 92.8915 128.817 91.84 125.57 89.7369C122.37 87.6337 120.13 84.7534 118.85 81.0958L125.639 77.1181C127.559 82.5131 131.537 85.2106 137.572 85.2106C140.544 85.2106 142.761 84.6391 144.224 83.4961C145.733 82.3074 146.487 80.7757 146.487 78.9012C146.487 76.9353 145.687 75.4494 144.087 74.4435C142.487 73.392 139.652 72.249 135.583 71.0145C133.297 70.3287 131.445 69.6886 130.028 69.0943C128.611 68.4999 127.102 67.677 125.502 66.6254C123.947 65.5281 122.781 64.1794 122.004 62.5792C121.227 60.979 120.838 59.1045 120.838 56.9556C120.838 52.7037 122.347 49.3432 125.365 46.8744C128.382 44.3598 132.017 43.1025 136.269 43.1025C140.109 43.1025 143.47 44.0397 146.35 45.9142C149.231 47.7888 151.448 50.3719 153.002 53.6638L146.35 57.5043C144.338 53.0237 140.978 50.7834 136.269 50.7834C133.983 50.7834 132.154 51.3321 130.782 52.4293C129.411 53.4809 128.725 54.9211 128.725 56.7499C128.725 58.533 129.411 59.9503 130.782 61.0018C132.2 62.0077 134.737 63.0821 138.395 64.2251C140.224 64.8195 141.55 65.2767 142.373 65.5967C143.241 65.871 144.43 66.3282 145.939 66.9683C147.493 67.6084 148.659 68.2485 149.436 68.8885C150.213 69.5286 151.036 70.3287 151.905 71.2888C152.82 72.249 153.46 73.3462 153.825 74.5807C154.191 75.8151 154.374 77.2096 154.374 78.7641C154.374 83.1075 152.797 86.5593 149.642 89.1196C146.533 91.6342 142.441 92.8915 137.366 92.8915ZM180.164 56.8185C184.873 56.8185 188.896 58.5787 192.234 62.0991C195.571 65.5738 197.24 69.8258 197.24 74.855C197.24 79.9299 195.571 84.2047 192.234 87.6795C188.896 91.1542 184.873 92.8915 180.164 92.8915C174.952 92.8915 170.951 90.9713 168.162 87.1308V105.716H160.756V57.71H168.162V62.6478C170.951 58.7616 174.952 56.8185 180.164 56.8185ZM171.248 82.7417C173.306 84.7991 175.889 85.8278 178.998 85.8278C182.107 85.8278 184.69 84.7991 186.748 82.7417C188.805 80.6386 189.834 78.0097 189.834 74.855C189.834 71.7003 188.805 69.0943 186.748 67.0369C184.69 64.9338 182.107 63.8822 178.998 63.8822C175.889 63.8822 173.306 64.9338 171.248 67.0369C169.191 69.0943 168.162 71.7003 168.162 74.855C168.162 78.0097 169.191 80.6386 171.248 82.7417ZM231.111 57.71H238.517V92H231.111V87.0622C228.322 90.9484 224.321 92.8915 219.109 92.8915C214.4 92.8915 210.377 91.1542 207.039 87.6795C203.702 84.159 202.033 79.8842 202.033 74.855C202.033 69.7801 203.702 65.5053 207.039 62.0305C210.377 58.5558 214.4 56.8185 219.109 56.8185C224.321 56.8185 228.322 58.7387 231.111 62.5792V57.71ZM212.526 82.7417C214.583 84.7991 217.166 85.8278 220.275 85.8278C223.384 85.8278 225.967 84.7991 228.025 82.7417C230.082 80.6386 231.111 78.0097 231.111 74.855C231.111 71.7003 230.082 69.0943 228.025 67.0369C225.967 64.9338 223.384 63.8822 220.275 63.8822C217.166 63.8822 214.583 64.9338 212.526 67.0369C210.468 69.0943 209.439 71.7003 209.439 74.855C209.439 78.0097 210.468 80.6386 212.526 82.7417ZM254.557 63.4707C256.432 59.2188 259.952 57.0928 265.118 57.0928V65.1166C262.284 64.9338 259.815 65.6196 257.712 67.174C255.609 68.6828 254.557 71.1974 254.557 74.7178V92H247.15V57.71H254.557V63.4707ZM300.903 92H292.056L277.997 76.158V92H270.591V43.994H277.997V72.8662L291.302 57.71H300.355L285.267 74.5121L300.903 92Z" fill="url(#paint1_linear_988_604)"/>
</g>
<defs>
<filter id="filter0_b_988_604" x="-13.716" y="-13.716" width="373.761" height="173.432" filterUnits="userSpaceOnUse" color-interpolation-filters="sRGB">
<feFlood flood-opacity="0" result="BackgroundImageFix"/>
<feGaussianBlur in="BackgroundImageFix" stdDeviation="6.858"/>
<feComposite in2="SourceAlpha" operator="in" result="effect1_backgroundBlur_988_604"/>
<feBlend mode="normal" in="SourceGraphic" in2="effect1_backgroundBlur_988_604" result="shape"/>
</filter>
<linearGradient id="paint0_linear_988_604" x1="54.8639" y1="64.4281" x2="72.0567" y2="103.841" gradientUnits="userSpaceOnUse">
<stop stop-color="#DF7841"/>
<stop offset="1" stop-color="#794123" stop-opacity="0.97"/>
</linearGradient>
<linearGradient id="paint1_linear_988_604" x1="212.598" y1="41.319" x2="212.598" y2="97.9661" gradientUnits="userSpaceOnUse">
<stop stop-color="white"/>
<stop offset="1" stop-color="#999999"/>
</linearGradient>
</defs>
</svg>
